<svg id="svg" version="1.1" xmlns="http://www.w3.org/2000/svg" xmlns:xlink="http://www.w3.org/1999/xlink" width="400" height="225.60600887674977" viewBox="0, 0, 400,225.60600887674977"><g id="svgg"><path id="path0" d="M185.333 46.341 C 184.371 46.522,183.186 46.741,182.700 46.828 C 181.615 47.021,179.833 47.541,179.833 47.664 C 179.833 47.714,181.165 47.762,182.792 47.772 C 187.004 47.798,191.914 48.896,192.833 50.018 C 192.879 50.074,193.142 50.236,193.418 50.377 C 196.242 51.823,198.644 56.187,198.693 59.962 C 198.731 62.942,196.930 68.623,195.400 70.346 C 195.272 70.491,195.167 70.666,195.167 70.736 C 195.167 70.922,194.118 72.394,193.875 72.550 C 193.760 72.623,193.667 72.755,193.667 72.843 C 193.667 73.290,190.614 76.515,188.483 78.319 C 186.788 79.753,186.603 79.904,186.315 80.083 C 186.168 80.175,185.725 80.475,185.331 80.750 C 184.185 81.548,183.797 81.798,183.000 82.247 C 182.588 82.479,182.137 82.743,182.000 82.833 C 181.862 82.924,180.869 83.413,179.792 83.921 C 177.837 84.843,177.334 85.272,178.375 85.129 C 179.594 84.961,183.614 83.819,184.790 83.307 C 185.178 83.138,185.591 82.999,185.707 82.998 C 185.822 82.998,186.292 82.812,186.750 82.587 C 187.208 82.362,187.642 82.175,187.713 82.172 C 187.951 82.162,190.763 80.713,192.117 79.903 C 195.919 77.626,199.578 74.508,201.975 71.500 C 202.450 70.904,202.950 70.298,203.086 70.153 C 203.222 70.007,203.333 69.834,203.333 69.767 C 203.333 69.699,203.521 69.399,203.750 69.098 C 203.979 68.798,204.167 68.471,204.167 68.371 C 204.167 68.272,204.261 68.091,204.377 67.970 C 204.591 67.746,205.331 66.260,205.980 64.750 C 208.294 59.371,207.184 53.292,203.297 50.055 C 202.904 49.728,202.546 49.412,202.500 49.354 C 202.192 48.959,199.740 47.690,198.333 47.197 C 194.936 46.008,189.131 45.625,185.333 46.341 M201.333 95.614 C 198.953 95.868,196.676 96.296,194.750 96.851 C 194.108 97.036,193.396 97.227,193.167 97.275 C 192.560 97.401,189.258 98.686,188.417 99.123 C 188.142 99.266,187.354 99.673,186.667 100.028 C 185.979 100.382,185.079 100.895,184.667 101.167 C 184.254 101.439,183.804 101.715,183.667 101.781 C 183.350 101.932,181.697 103.175,180.493 104.167 C 178.886 105.491,176.159 108.341,174.832 110.083 C 174.343 110.725,173.787 111.449,173.597 111.692 C 173.406 111.935,173.063 112.380,172.833 112.680 C 171.791 114.047,170.813 115.278,170.528 115.583 C 170.357 115.767,169.762 116.517,169.207 117.250 C 168.651 117.983,167.963 118.846,167.678 119.167 C 167.392 119.487,167.102 119.825,167.033 119.917 C 166.184 121.038,164.579 122.946,164.399 123.050 C 164.271 123.123,164.167 123.292,164.167 123.425 C 164.167 123.558,164.108 123.667,164.037 123.667 C 163.965 123.667,163.421 124.245,162.828 124.951 C 162.235 125.657,161.600 126.400,161.417 126.602 C 161.233 126.803,160.783 127.330,160.417 127.773 C 160.050 128.215,159.544 128.764,159.292 128.992 C 159.040 129.221,158.833 129.503,158.833 129.620 C 158.833 129.738,158.767 129.833,158.687 129.833 C 158.606 129.833,157.863 130.602,157.035 131.542 C 153.398 135.671,145.193 144.082,140.372 148.621 C 137.681 151.155,135.250 153.370,134.070 154.361 C 133.361 154.957,132.291 155.907,131.814 156.365 C 131.176 156.977,125.698 161.482,124.875 162.071 C 124.394 162.416,124.000 162.766,124.000 162.849 C 124.000 162.932,123.913 163.000,123.806 163.000 C 123.699 163.000,123.493 163.118,123.347 163.261 C 123.019 163.586,120.571 165.447,119.309 166.330 C 118.792 166.692,118.264 167.085,118.136 167.202 C 118.007 167.320,117.788 167.492,117.647 167.583 C 117.507 167.675,116.845 168.125,116.178 168.583 C 115.510 169.042,114.839 169.492,114.688 169.583 C 114.536 169.675,114.143 169.956,113.815 170.208 C 113.487 170.460,113.151 170.669,113.068 170.673 C 112.790 170.684,111.928 171.484,112.056 171.612 C 112.126 171.681,112.310 171.647,112.466 171.535 C 112.622 171.423,112.862 171.289,113.000 171.237 C 113.350 171.105,114.141 170.668,115.552 169.827 C 116.085 169.510,116.649 169.175,116.806 169.083 C 116.962 168.992,117.314 168.767,117.588 168.583 C 117.861 168.400,118.204 168.175,118.351 168.083 C 119.358 167.452,120.091 166.929,120.139 166.808 C 120.169 166.730,120.295 166.667,120.419 166.667 C 120.542 166.667,120.744 166.573,120.867 166.458 C 121.200 166.149,122.659 165.167,122.786 165.167 C 122.846 165.167,123.056 165.015,123.253 164.830 C 123.450 164.645,124.025 164.214,124.530 163.872 C 127.197 162.067,127.833 161.605,127.833 161.476 C 127.833 161.397,127.905 161.333,127.992 161.333 C 128.149 161.333,130.138 159.938,130.708 159.427 C 130.869 159.284,131.066 159.167,131.146 159.167 C 131.227 159.167,131.392 159.046,131.515 158.899 C 131.637 158.752,132.190 158.327,132.743 157.954 C 133.297 157.581,133.810 157.176,133.883 157.055 C 133.957 156.933,134.082 156.833,134.161 156.833 C 134.375 156.833,136.833 154.968,136.833 154.806 C 136.833 154.729,136.913 154.667,137.011 154.667 C 137.109 154.667,137.465 154.443,137.803 154.169 C 138.384 153.698,141.083 151.618,142.626 150.452 C 143.016 150.158,143.514 149.767,143.734 149.583 C 143.953 149.400,144.382 149.063,144.686 148.833 C 144.991 148.604,145.993 147.816,146.912 147.081 C 147.831 146.347,148.883 145.524,149.250 145.253 C 149.617 144.982,151.342 143.595,153.083 142.170 C 154.825 140.745,156.587 139.322,157.000 139.007 C 157.852 138.356,158.094 138.158,158.631 137.668 C 159.015 137.318,159.666 136.782,164.682 132.681 C 166.186 131.451,167.616 130.251,167.859 130.014 C 168.102 129.777,168.437 129.471,168.603 129.333 C 169.987 128.190,172.201 126.325,172.391 126.142 C 172.519 126.018,172.986 125.617,173.428 125.250 C 173.870 124.883,174.360 124.459,174.518 124.306 C 174.676 124.153,175.580 123.372,176.527 122.570 C 177.475 121.768,178.512 120.870,178.833 120.574 C 179.686 119.788,180.240 119.306,180.864 118.809 C 181.168 118.566,181.847 118.023,182.373 117.601 C 182.898 117.179,183.398 116.833,183.484 116.833 C 183.569 116.833,183.664 116.776,183.694 116.706 C 183.758 116.561,185.454 115.333,185.590 115.333 C 185.640 115.333,185.883 115.195,186.132 115.026 C 188.048 113.722,192.156 111.507,194.083 110.738 C 194.358 110.628,195.071 110.335,195.667 110.085 C 202.617 107.180,211.161 105.211,219.167 104.672 C 226.237 104.195,236.406 103.082,242.103 102.160 C 243.214 101.980,244.339 101.835,244.603 101.837 C 244.867 101.839,246.208 101.648,247.583 101.412 C 248.958 101.176,251.021 100.834,252.167 100.652 C 255.971 100.047,262.187 98.975,265.250 98.394 C 266.442 98.168,268.204 97.834,269.167 97.651 C 270.129 97.468,271.779 97.133,272.833 96.907 C 273.887 96.681,274.919 96.496,275.125 96.498 C 275.331 96.499,275.500 96.425,275.500 96.333 C 275.500 96.127,275.076 96.126,272.750 96.324 C 271.742 96.409,269.904 96.522,268.667 96.574 C 267.429 96.625,264.804 96.781,262.833 96.920 C 252.272 97.663,229.012 97.665,223.250 96.924 C 222.150 96.783,220.762 96.624,220.167 96.573 C 219.571 96.521,218.521 96.368,217.833 96.233 C 217.146 96.098,216.171 95.948,215.667 95.900 C 215.162 95.851,213.722 95.704,212.466 95.572 C 209.620 95.275,204.320 95.294,201.333 95.614 M258.333 148.767 C 252.053 149.909,248.731 153.773,247.387 161.500 C 247.347 161.729,247.137 162.704,246.921 163.667 C 245.854 168.420,245.778 168.971,245.769 172.000 C 245.759 175.346,245.998 176.159,247.402 177.556 C 249.781 179.922,256.829 180.217,260.487 178.104 C 261.457 177.543,262.995 176.279,263.096 175.959 C 263.147 175.798,263.250 175.667,263.325 175.667 C 263.743 175.667,265.832 171.393,266.178 169.833 C 266.249 169.512,266.458 168.688,266.642 168.000 C 266.826 167.313,267.129 166.037,267.316 165.167 C 267.502 164.296,267.859 162.646,268.109 161.500 C 268.508 159.668,268.564 159.045,268.573 156.333 L 268.583 153.250 268.019 152.167 C 266.666 149.569,262.316 148.043,258.333 148.767 M340.667 148.766 C 335.389 149.719,332.946 151.661,330.834 156.583 C 330.280 157.875,329.000 162.346,329.000 162.991 C 329.000 163.185,328.819 164.110,328.597 165.047 C 326.536 173.766,327.492 177.593,332.083 179.006 C 333.978 179.589,339.816 179.605,342.935 179.035 C 344.045 178.833,345.177 178.667,345.450 178.667 C 345.915 178.667,345.958 178.611,346.128 177.792 C 346.228 177.310,346.473 176.129,346.672 175.167 C 346.871 174.204,347.220 172.554,347.447 171.500 C 347.675 170.446,348.002 168.908,348.175 168.083 C 348.348 167.258,348.642 165.905,348.828 165.075 C 349.014 164.246,349.167 163.515,349.167 163.450 C 349.167 163.223,339.376 163.313,339.292 163.542 C 339.249 163.656,339.120 164.275,339.004 164.917 C 338.888 165.558,338.690 166.470,338.563 166.942 C 338.220 168.224,338.152 168.167,340.019 168.167 C 341.687 168.167,341.704 168.171,341.606 168.542 C 341.551 168.748,341.391 169.442,341.250 170.083 C 341.109 170.725,340.827 171.961,340.622 172.829 L 340.250 174.409 339.333 174.694 C 334.914 176.071,333.457 174.020,334.578 168.000 C 336.704 156.581,338.127 153.517,341.333 153.456 C 343.637 153.412,344.592 155.033,343.939 157.879 L 343.795 158.507 347.021 158.462 L 350.248 158.417 350.441 157.583 C 351.024 155.073,350.534 152.495,349.197 151.033 C 348.761 150.557,348.348 150.167,348.279 150.167 C 348.210 150.167,347.950 150.017,347.702 149.833 C 346.645 149.053,342.532 148.429,340.667 148.766 M178.935 150.458 C 178.769 151.077,178.571 151.996,178.495 152.500 C 178.418 153.004,178.304 153.660,178.241 153.958 L 178.125 154.500 181.544 154.500 L 184.963 154.500 184.746 155.458 C 184.627 155.985,184.368 157.204,184.170 158.167 C 183.972 159.129,183.622 160.779,183.393 161.833 C 183.163 162.887,182.835 164.425,182.664 165.250 C 182.492 166.075,182.183 167.500,181.977 168.417 C 181.771 169.333,181.578 170.271,181.548 170.500 C 181.496 170.903,181.227 172.161,180.409 175.833 C 180.195 176.796,179.977 177.904,179.924 178.295 L 179.828 179.007 183.036 178.962 L 186.243 178.917 186.525 177.667 C 186.680 176.979,186.970 175.629,187.168 174.667 C 187.366 173.704,187.701 172.129,187.913 171.167 C 188.125 170.204,188.460 168.629,188.657 167.667 C 188.855 166.704,189.196 165.092,189.415 164.083 C 189.634 163.075,189.970 161.500,190.161 160.583 C 190.352 159.667,190.694 158.129,190.921 157.165 C 191.148 156.202,191.333 155.208,191.333 154.957 L 191.333 154.500 194.811 154.500 L 198.289 154.500 198.561 153.531 C 198.711 152.998,198.835 152.379,198.836 152.156 C 198.838 151.933,198.980 151.206,199.153 150.542 L 199.467 149.333 189.352 149.333 L 179.236 149.333 178.935 150.458 M199.724 153.042 C 199.784 155.081,199.983 160.200,200.164 164.417 C 200.346 168.633,200.497 173.471,200.500 175.167 C 200.506 179.491,200.002 179.000,204.436 179.000 L 208.165 179.000 209.098 177.042 C 209.610 175.965,210.391 174.333,210.833 173.417 C 211.275 172.500,211.983 171.000,212.407 170.083 C 212.830 169.167,213.300 168.192,213.451 167.917 C 213.602 167.642,213.778 167.304,213.842 167.167 C 214.237 166.322,216.737 161.062,217.764 158.917 C 218.159 158.092,218.835 156.667,219.265 155.750 C 220.064 154.047,220.123 153.926,220.662 152.863 C 220.940 152.314,222.163 149.779,222.307 149.455 C 222.338 149.384,220.887 149.347,219.082 149.371 L 215.801 149.417 214.542 152.250 C 213.849 153.808,212.952 155.796,212.549 156.667 C 211.322 159.318,211.214 159.554,210.834 160.417 C 210.251 161.741,209.525 163.340,209.056 164.333 C 208.818 164.837,208.491 165.550,208.329 165.917 C 207.565 167.643,207.114 168.623,206.882 169.057 C 206.743 169.318,206.569 169.730,206.496 169.974 C 206.422 170.217,206.356 165.673,206.348 159.875 L 206.333 149.333 202.974 149.333 L 199.614 149.333 199.724 153.042 M228.595 149.481 C 228.545 149.562,228.429 150.143,228.337 150.772 C 228.245 151.402,228.057 152.285,227.918 152.735 C 227.780 153.185,227.667 153.654,227.667 153.776 C 227.667 153.959,228.720 154.000,233.417 154.000 C 239.382 154.000,239.479 154.013,238.779 154.702 C 238.566 154.912,237.647 155.983,236.738 157.082 C 235.828 158.181,234.949 159.231,234.784 159.415 C 234.355 159.895,234.245 160.025,232.325 162.333 C 231.372 163.479,230.540 164.455,230.476 164.502 C 230.412 164.549,230.110 164.894,229.805 165.270 C 229.050 166.199,226.786 168.897,226.674 169.000 C 226.594 169.074,225.343 170.561,224.667 171.386 C 224.529 171.553,224.134 172.004,223.789 172.387 C 223.110 173.140,222.632 174.442,222.339 176.333 C 222.246 176.929,222.095 177.679,222.002 177.999 C 221.909 178.319,221.833 178.675,221.833 178.791 C 221.833 178.956,223.815 179.000,231.321 179.000 L 240.809 179.000 240.994 178.042 C 241.096 177.515,241.316 176.465,241.484 175.708 L 241.788 174.333 235.463 174.333 L 229.138 174.333 230.266 172.958 C 231.510 171.441,231.900 170.997,232.458 170.465 C 232.665 170.268,232.833 170.008,232.833 169.887 C 232.833 169.766,232.898 169.667,232.976 169.667 C 233.055 169.667,233.743 168.905,234.504 167.975 C 235.266 167.044,236.064 166.130,236.278 165.945 C 236.492 165.759,236.667 165.508,236.667 165.387 C 236.667 165.266,236.726 165.167,236.798 165.167 C 236.870 165.167,237.557 164.398,238.326 163.458 C 239.816 161.636,240.198 161.198,240.792 160.631 C 240.998 160.434,241.167 160.174,241.167 160.053 C 241.167 159.932,241.231 159.833,241.310 159.833 C 241.388 159.833,242.075 159.065,242.835 158.125 C 243.595 157.185,244.393 156.279,244.608 156.111 C 244.824 155.943,245.000 155.717,245.000 155.610 C 245.000 155.502,245.150 155.320,245.333 155.205 C 245.517 155.091,245.667 154.817,245.667 154.597 C 245.667 154.377,245.847 153.496,246.068 152.640 C 246.289 151.784,246.517 150.690,246.574 150.208 L 246.678 149.333 237.682 149.333 C 232.654 149.333,228.646 149.398,228.595 149.481 M274.836 150.958 C 274.637 151.852,274.331 153.258,274.156 154.083 C 273.981 154.908,273.651 156.446,273.422 157.500 C 273.194 158.554,272.852 160.167,272.662 161.083 C 272.326 162.713,271.897 164.724,271.097 168.417 C 270.879 169.425,270.540 171.037,270.344 172.000 C 270.147 172.963,269.830 174.409,269.638 175.215 C 269.447 176.021,269.201 177.202,269.093 177.840 L 268.896 179.000 272.108 179.000 L 275.320 179.000 275.480 178.375 C 275.568 178.031,275.728 177.300,275.834 176.750 C 275.941 176.200,276.172 175.148,276.347 174.411 C 276.523 173.675,276.667 172.926,276.667 172.746 C 276.667 172.566,276.861 171.594,277.098 170.585 C 277.335 169.576,277.659 168.188,277.818 167.500 L 278.106 166.250 282.464 166.206 L 286.822 166.161 287.008 165.471 C 287.110 165.091,287.262 164.361,287.345 163.849 C 287.428 163.336,287.572 162.655,287.665 162.334 C 287.972 161.274,288.219 161.333,283.500 161.333 C 280.398 161.333,279.167 161.280,279.167 161.146 C 279.167 161.042,279.318 160.274,279.504 159.437 C 280.193 156.332,280.491 154.906,280.537 154.500 L 280.583 154.083 285.198 154.039 C 289.413 153.999,289.819 153.970,289.892 153.706 C 289.966 153.436,290.031 153.132,290.487 150.917 C 290.581 150.458,290.707 149.915,290.765 149.708 L 290.872 149.333 283.035 149.333 L 275.198 149.333 274.836 150.958 M293.098 151.292 C 292.848 152.369,292.501 153.925,292.328 154.750 C 292.155 155.575,291.828 157.112,291.601 158.167 C 291.124 160.381,290.432 163.626,290.000 165.667 C 289.835 166.446,289.500 168.021,289.254 169.167 C 289.009 170.313,288.660 171.963,288.478 172.833 C 288.297 173.704,287.965 175.178,287.741 176.109 C 287.517 177.039,287.333 178.071,287.333 178.400 L 287.333 179.000 290.492 179.000 L 293.651 179.000 293.827 178.375 C 293.924 178.031,294.044 177.450,294.095 177.083 C 294.145 176.717,294.327 175.779,294.499 175.000 C 295.288 171.423,295.677 169.621,296.007 168.000 C 296.203 167.037,296.551 165.387,296.781 164.333 C 297.455 161.234,297.963 158.863,298.333 157.083 C 298.524 156.167,298.860 154.592,299.081 153.583 C 299.301 152.575,299.570 151.300,299.678 150.750 C 299.787 150.200,299.912 149.656,299.956 149.542 C 300.018 149.379,299.319 149.333,296.795 149.333 L 293.555 149.333 293.098 151.292 M304.833 149.672 C 304.833 149.858,304.653 150.777,304.432 151.713 C 304.211 152.650,303.868 154.204,303.670 155.167 C 303.472 156.129,303.122 157.779,302.893 158.833 C 302.219 161.929,301.707 164.308,301.353 166.000 C 301.170 166.871,300.836 168.446,300.610 169.500 C 300.385 170.554,300.036 172.204,299.835 173.167 C 299.634 174.129,299.289 175.683,299.068 176.620 C 298.446 179.258,298.166 179.000,301.650 179.000 L 304.634 179.000 305.081 177.042 C 305.326 175.965,305.676 174.371,305.857 173.500 C 306.168 172.004,306.409 170.879,307.395 166.333 C 307.623 165.279,307.851 164.192,307.900 163.917 C 308.593 160.071,309.304 157.451,309.325 158.667 C 309.333 159.079,309.487 160.122,309.669 160.984 C 309.851 161.845,310.000 162.773,310.000 163.044 C 310.000 163.316,310.183 164.561,310.406 165.811 C 310.629 167.061,310.969 169.096,311.160 170.333 C 311.352 171.571,311.692 173.633,311.916 174.917 C 312.140 176.200,312.370 177.644,312.427 178.125 L 312.531 179.000 316.739 179.000 L 320.947 179.000 321.140 178.356 C 321.246 178.001,321.333 177.571,321.333 177.399 C 321.333 177.227,321.517 176.298,321.742 175.335 C 321.967 174.371,322.299 172.871,322.480 172.000 C 322.661 171.129,322.997 169.554,323.226 168.500 C 323.456 167.446,323.806 165.796,324.004 164.833 C 324.202 163.871,324.538 162.296,324.750 161.333 C 324.962 160.371,325.297 158.796,325.494 157.833 C 326.160 154.584,327.084 150.347,327.266 149.708 L 327.372 149.333 324.303 149.333 L 321.233 149.333 320.964 150.542 C 320.557 152.363,319.911 155.372,319.505 157.333 C 319.306 158.296,318.956 159.946,318.726 161.000 C 318.497 162.054,318.170 163.592,317.999 164.417 C 317.329 167.661,316.917 169.252,316.876 168.750 C 316.853 168.475,316.652 167.237,316.428 166.000 C 316.204 164.762,315.865 162.813,315.673 161.667 C 315.277 159.293,314.643 155.607,314.170 152.917 C 313.992 151.908,313.799 150.690,313.741 150.208 L 313.635 149.333 309.234 149.333 C 304.922 149.333,304.833 149.340,304.833 149.672 M357.082 149.958 C 357.027 150.302,356.806 151.371,356.590 152.333 C 356.374 153.296,356.036 154.871,355.837 155.833 C 355.372 158.093,354.732 161.042,354.318 162.833 C 354.138 163.612,353.994 164.400,353.997 164.583 C 354.000 164.767,353.821 165.667,353.600 166.583 C 353.193 168.267,352.657 170.696,352.019 173.750 C 351.454 176.451,350.998 178.478,350.894 178.748 C 350.809 178.971,351.773 179.000,359.226 179.000 L 367.654 179.000 367.840 178.307 C 367.943 177.926,368.095 177.195,368.178 176.682 C 368.262 176.169,368.406 175.488,368.498 175.168 C 368.591 174.848,368.667 174.529,368.667 174.459 C 368.667 174.390,366.334 174.333,363.482 174.333 C 359.404 174.333,358.314 174.289,358.375 174.125 C 358.448 173.929,358.649 173.054,359.591 168.833 C 359.806 167.871,360.027 166.800,360.083 166.454 L 360.184 165.824 364.800 165.840 L 369.417 165.856 369.624 164.803 C 369.738 164.224,369.945 163.262,370.084 162.667 C 370.514 160.822,370.968 161.000,365.831 161.000 L 361.329 161.000 361.423 160.292 C 361.475 159.902,361.660 158.946,361.834 158.167 C 362.008 157.387,362.279 156.131,362.436 155.375 L 362.721 154.000 367.777 154.000 L 372.833 154.000 372.835 153.458 C 372.836 153.160,372.951 152.542,373.091 152.083 C 373.231 151.625,373.406 150.819,373.479 150.292 L 373.611 149.333 365.397 149.333 L 357.182 149.333 357.082 149.958 M377.510 150.375 C 377.269 151.611,376.798 153.856,376.225 156.500 C 375.996 157.554,375.670 159.092,375.500 159.917 C 375.330 160.742,375.004 162.279,374.775 163.333 C 374.297 165.533,373.602 168.773,373.167 170.833 C 372.295 174.956,371.959 176.513,371.741 177.444 C 371.343 179.140,371.095 179.000,374.494 179.000 L 377.487 179.000 377.658 178.366 C 377.752 178.017,377.872 177.473,377.926 177.158 C 377.979 176.842,378.212 175.721,378.442 174.667 C 379.203 171.187,379.687 168.937,380.002 167.417 C 380.386 165.561,381.024 162.595,381.488 160.500 C 381.681 159.629,381.840 158.729,381.841 158.500 C 381.846 157.627,382.138 158.601,382.415 160.417 C 382.569 161.425,382.839 163.037,383.015 164.000 C 383.190 164.962,383.333 165.938,383.332 166.167 C 383.331 166.396,383.515 167.633,383.741 168.917 C 384.319 172.198,384.954 176.007,385.191 177.625 L 385.393 179.000 389.610 179.000 L 393.827 179.000 393.904 178.625 C 394.054 177.903,394.697 174.900,395.109 173.000 C 395.337 171.946,395.666 170.408,395.839 169.583 C 396.012 168.758,396.339 167.221,396.567 166.167 C 396.794 165.112,397.142 163.462,397.339 162.500 C 397.536 161.537,397.871 159.962,398.083 159.000 C 398.295 158.037,398.628 156.462,398.824 155.500 C 399.019 154.537,399.363 152.989,399.589 152.058 C 399.815 151.127,400.000 150.133,400.000 149.850 L 400.000 149.333 397.042 149.334 L 394.083 149.335 393.608 151.459 C 393.347 152.627,392.985 154.296,392.804 155.167 C 392.622 156.037,392.287 157.612,392.058 158.667 C 391.829 159.721,391.502 161.258,391.331 162.083 C 391.160 162.908,390.832 164.446,390.601 165.500 C 390.371 166.554,390.135 167.735,390.077 168.125 C 389.921 169.168,389.721 168.991,389.512 167.625 C 389.263 166.006,388.749 162.931,388.249 160.083 C 388.024 158.800,387.683 156.813,387.490 155.667 C 387.007 152.789,386.497 149.974,386.396 149.625 C 386.318 149.357,385.963 149.333,382.012 149.333 L 377.712 149.333 377.510 150.375 M260.750 153.712 C 262.571 154.611,262.531 157.174,260.558 165.917 C 258.899 173.270,256.668 176.036,253.577 174.569 C 252.233 173.931,251.967 170.785,252.896 166.500 C 253.144 165.354,253.500 163.704,253.688 162.833 C 254.237 160.280,255.259 156.857,255.678 156.167 C 256.745 154.410,257.279 153.928,258.521 153.603 C 259.417 153.368,260.124 153.403,260.750 153.712 " stroke="none" fill="#7c7c7c" fill-rule="evenodd"></path><path id="path1" d="M125.917 0.243 C 122.921 1.015,121.462 1.538,120.083 2.333 C 119.625 2.598,118.969 2.970,118.625 3.160 C 118.281 3.351,118.000 3.580,118.000 3.670 C 118.000 3.760,117.886 3.833,117.748 3.833 C 117.469 3.833,114.167 7.069,114.167 7.343 C 114.167 7.437,114.027 7.664,113.856 7.848 C 113.478 8.253,112.000 11.215,112.000 11.566 C 112.000 11.704,111.888 12.249,111.750 12.777 C 110.489 17.620,112.955 22.515,117.968 25.120 C 119.629 25.983,119.835 25.885,118.860 24.697 C 116.507 21.830,116.045 18.017,117.624 14.499 C 117.809 14.087,118.010 13.588,118.070 13.390 C 118.130 13.192,118.289 12.939,118.423 12.828 C 118.557 12.717,118.667 12.485,118.667 12.313 C 118.667 12.141,118.727 12.000,118.800 12.000 C 118.873 12.000,119.154 11.651,119.424 11.224 C 120.157 10.065,122.162 8.115,123.500 7.260 C 123.912 6.997,124.446 6.648,124.686 6.486 C 126.414 5.313,130.677 4.173,133.348 4.168 C 136.313 4.163,139.868 5.308,142.418 7.090 C 143.833 8.080,144.125 7.919,143.250 6.631 C 143.021 6.294,142.833 5.966,142.833 5.902 C 142.833 5.596,140.415 3.016,140.118 3.005 C 140.045 3.002,139.837 2.861,139.655 2.692 C 139.216 2.282,136.737 1.061,135.908 0.845 C 135.546 0.751,134.725 0.527,134.083 0.347 C 132.656 -0.054,127.331 -0.121,125.917 0.243 M145.026 17.375 C 144.310 18.944,143.328 20.874,143.145 21.075 C 143.065 21.162,143.000 21.336,143.000 21.461 C 143.000 21.586,142.813 21.935,142.583 22.235 C 142.354 22.536,142.167 22.857,142.167 22.948 C 142.167 23.040,142.017 23.251,141.833 23.417 C 141.650 23.583,141.500 23.789,141.500 23.875 C 141.500 23.961,141.162 24.475,140.750 25.018 C 140.337 25.560,140.000 26.074,140.000 26.160 C 140.000 26.246,139.906 26.377,139.791 26.450 C 139.676 26.523,139.362 26.883,139.094 27.250 C 138.667 27.835,137.961 28.704,137.268 29.500 C 137.149 29.637,136.428 30.500,135.667 31.417 C 134.906 32.333,134.164 33.205,134.017 33.353 C 133.870 33.502,133.450 33.971,133.083 34.396 C 132.717 34.820,132.079 35.529,131.667 35.971 C 131.254 36.413,130.467 37.293,129.917 37.927 C 129.367 38.561,128.504 39.522,128.000 40.062 C 126.806 41.342,126.517 41.655,124.861 43.469 C 123.557 44.896,122.976 45.584,122.110 46.725 C 121.912 46.986,121.633 47.323,121.490 47.475 C 121.347 47.626,120.939 48.200,120.584 48.750 C 120.229 49.300,119.891 49.788,119.834 49.833 C 119.282 50.270,116.927 55.088,116.202 57.259 C 114.643 61.934,114.603 67.648,116.103 71.417 C 116.322 71.967,116.501 72.484,116.500 72.566 C 116.500 72.828,118.328 76.051,119.009 76.986 C 120.958 79.665,124.451 82.980,126.893 84.467 C 127.089 84.587,127.556 84.887,127.931 85.134 C 128.305 85.381,128.973 85.808,129.416 86.083 C 129.858 86.358,130.462 86.790,130.757 87.042 C 131.052 87.294,131.345 87.500,131.407 87.500 C 131.937 87.500,136.833 93.041,136.833 93.641 C 136.833 93.722,136.971 93.967,137.139 94.186 C 139.659 97.459,140.099 105.602,138.020 110.500 C 137.020 112.856,136.522 113.895,135.781 115.167 C 135.327 115.946,134.848 116.788,134.717 117.038 C 134.586 117.289,134.415 117.533,134.336 117.582 C 134.258 117.630,133.920 118.138,133.586 118.710 C 133.018 119.681,131.695 121.707,131.382 122.083 C 131.306 122.175,130.915 122.737,130.513 123.333 C 130.111 123.929,129.737 124.454,129.682 124.500 C 129.627 124.546,129.360 124.921,129.088 125.333 C 128.816 125.746,128.403 126.319,128.171 126.607 C 127.673 127.225,127.402 127.580,126.402 128.917 C 125.237 130.476,124.954 130.840,124.407 131.483 C 124.127 131.813,123.418 132.683,122.831 133.417 C 122.245 134.150,121.611 134.915,121.424 135.116 C 120.731 135.861,120.373 136.273,119.576 137.250 C 119.127 137.800,118.446 138.587,118.063 139.000 C 116.839 140.318,116.446 140.748,115.001 142.349 C 113.224 144.317,104.521 153.029,102.112 155.252 C 101.119 156.167,99.951 157.254,99.516 157.667 C 98.701 158.439,97.582 159.430,94.833 161.817 C 93.962 162.573,92.987 163.431,92.667 163.724 C 92.346 164.017,91.183 165.000,90.083 165.908 C 88.983 166.816,87.955 167.677,87.799 167.821 C 87.643 167.965,87.305 168.248,87.049 168.449 C 85.359 169.777,80.522 173.709,80.232 173.991 C 80.039 174.179,79.834 174.333,79.776 174.333 C 79.718 174.333,79.538 174.441,79.377 174.573 C 78.127 175.594,77.666 175.960,77.266 176.250 C 77.013 176.433,76.668 176.700,76.499 176.842 C 76.331 176.984,75.737 177.432,75.180 177.838 C 74.622 178.243,74.167 178.633,74.167 178.704 C 74.167 178.775,74.095 178.833,74.008 178.833 C 73.878 178.833,72.167 180.059,70.417 181.405 C 69.761 181.910,68.837 182.590,68.253 183.000 C 67.725 183.370,67.277 183.706,66.750 184.127 C 66.658 184.200,66.096 184.595,65.500 185.005 C 64.904 185.415,64.379 185.790,64.333 185.839 C 64.261 185.916,62.668 187.066,61.569 187.833 C 61.372 187.971,60.891 188.308,60.499 188.583 C 60.106 188.858,59.665 189.158,59.518 189.250 C 59.024 189.557,57.584 190.560,57.500 190.656 C 57.454 190.708,57.292 190.825,57.139 190.917 C 56.987 191.008,55.764 191.833,54.421 192.750 C 53.079 193.667,51.582 194.679,51.095 195.000 C 50.608 195.321,49.993 195.729,49.730 195.908 C 48.715 196.595,44.551 199.290,43.917 199.671 C 43.550 199.891,43.153 200.166,43.034 200.281 C 42.915 200.397,42.559 200.615,42.242 200.765 C 41.926 200.915,41.667 201.104,41.667 201.186 C 41.667 201.267,41.588 201.333,41.491 201.333 C 41.395 201.333,40.701 201.735,39.950 202.226 C 39.198 202.716,38.222 203.335,37.781 203.601 C 37.340 203.866,36.665 204.288,36.281 204.539 C 35.897 204.790,35.471 205.047,35.333 205.110 C 35.196 205.174,34.851 205.400,34.568 205.613 C 34.284 205.826,34.009 206.000,33.957 206.000 C 33.870 206.000,32.315 206.975,31.909 207.284 C 31.813 207.357,31.325 207.634,30.825 207.899 C 30.326 208.165,29.804 208.473,29.667 208.584 C 29.529 208.696,28.929 209.065,28.333 209.404 C 27.738 209.744,26.912 210.240,26.500 210.507 C 26.087 210.775,25.600 211.068,25.417 211.159 C 25.233 211.250,24.708 211.549,24.250 211.824 C 23.792 212.099,23.079 212.515,22.667 212.749 C 22.254 212.983,21.692 213.312,21.417 213.480 C 20.832 213.838,19.393 214.672,17.500 215.751 C 17.087 215.987,16.394 216.382,15.958 216.631 C 15.103 217.119,14.998 217.178,11.250 219.254 C 9.875 220.016,8.337 220.872,7.833 221.156 C 7.329 221.441,6.392 221.939,5.750 222.264 C 5.108 222.590,3.908 223.228,3.083 223.683 C 2.258 224.139,1.227 224.669,0.792 224.861 C 0.017 225.203,-0.239 225.500,0.240 225.500 C 0.372 225.500,1.141 225.174,1.948 224.776 C 2.756 224.378,4.504 223.524,5.833 222.879 C 9.395 221.150,13.190 219.255,16.632 217.485 C 18.308 216.622,20.333 215.589,21.132 215.188 C 21.930 214.787,22.608 214.393,22.639 214.313 C 22.669 214.232,22.793 214.167,22.913 214.167 C 23.033 214.167,23.731 213.829,24.464 213.417 C 25.198 213.004,25.841 212.667,25.893 212.667 C 25.945 212.667,26.909 212.153,28.035 211.526 C 29.162 210.899,30.592 210.109,31.213 209.770 C 32.446 209.100,32.433 209.107,35.583 207.355 C 36.775 206.692,37.862 206.083,38.000 206.001 C 38.724 205.568,40.805 204.390,41.167 204.209 C 41.396 204.094,41.883 203.825,42.250 203.611 C 42.617 203.398,43.217 203.050,43.583 202.838 C 43.950 202.626,44.475 202.315,44.750 202.147 C 45.025 201.979,45.587 201.650,46.000 201.416 C 46.413 201.182,47.125 200.765,47.583 200.490 C 48.042 200.216,48.567 199.916,48.750 199.825 C 48.933 199.734,49.421 199.438,49.833 199.166 C 50.246 198.894,50.771 198.579,51.000 198.465 C 51.229 198.351,51.924 197.938,52.543 197.546 C 53.163 197.154,53.706 196.833,53.750 196.833 C 53.794 196.833,54.356 196.496,55.000 196.083 C 55.644 195.671,56.212 195.333,56.263 195.333 C 56.314 195.333,56.601 195.146,56.902 194.917 C 57.202 194.688,57.523 194.500,57.615 194.500 C 57.707 194.500,57.917 194.350,58.083 194.167 C 58.249 193.983,58.460 193.833,58.552 193.833 C 58.643 193.833,58.964 193.646,59.265 193.417 C 59.565 193.188,59.876 193.000,59.955 193.000 C 60.034 193.000,60.245 192.884,60.424 192.742 C 60.603 192.601,61.563 191.982,62.558 191.367 C 63.552 190.753,64.564 190.121,64.808 189.963 C 65.051 189.805,65.526 189.525,65.864 189.340 C 66.201 189.156,66.527 188.924,66.588 188.825 C 66.649 188.727,66.861 188.574,67.058 188.486 C 67.255 188.399,67.725 188.122,68.101 187.872 C 68.478 187.621,69.153 187.180,69.601 186.890 C 70.050 186.600,70.642 186.201,70.917 186.002 C 71.192 185.804,72.354 185.038,73.500 184.299 C 74.646 183.561,75.621 182.908,75.667 182.848 C 75.712 182.788,76.162 182.480,76.667 182.164 C 77.171 181.848,78.008 181.269,78.526 180.878 C 79.044 180.487,79.539 180.167,79.625 180.167 C 79.711 180.167,79.917 180.017,80.083 179.833 C 80.249 179.650,80.448 179.500,80.525 179.500 C 80.601 179.500,80.848 179.340,81.072 179.145 C 81.296 178.950,81.624 178.707,81.799 178.604 C 81.975 178.501,82.411 178.212,82.768 177.961 C 83.125 177.710,83.875 177.185,84.436 176.794 C 84.996 176.403,85.899 175.772,86.442 175.393 C 86.986 175.013,87.530 174.581,87.652 174.434 C 87.774 174.287,87.938 174.167,88.016 174.167 C 88.093 174.167,88.778 173.698,89.536 173.125 C 90.295 172.552,91.041 172.008,91.194 171.917 C 91.346 171.825,92.659 170.851,94.111 169.752 C 96.729 167.770,96.988 167.572,97.383 167.250 C 97.495 167.158,98.074 166.710,98.669 166.253 C 100.036 165.203,100.000 165.232,100.524 164.789 C 100.767 164.584,101.214 164.229,101.517 164.000 C 101.955 163.669,104.164 161.891,107.167 159.451 C 108.157 158.646,111.635 155.723,111.854 155.511 C 112.002 155.368,112.415 155.014,112.770 154.726 C 113.126 154.439,113.687 153.951,114.017 153.643 C 114.347 153.335,115.171 152.596,115.847 152.000 C 118.185 149.941,119.086 149.118,119.708 148.477 C 120.052 148.123,120.371 147.833,120.417 147.833 C 120.826 147.833,131.784 136.685,134.998 133.000 C 135.757 132.129,136.500 131.286,136.648 131.127 C 136.796 130.967,137.073 130.667,137.264 130.460 C 139.986 127.510,149.000 115.508,149.000 114.834 C 149.000 114.757,149.062 114.669,149.139 114.639 C 149.273 114.585,150.313 113.013,150.555 112.500 C 150.619 112.362,150.895 111.912,151.168 111.500 C 151.440 111.087,151.808 110.440,151.984 110.060 C 152.161 109.681,152.387 109.320,152.486 109.259 C 152.585 109.197,152.667 109.032,152.667 108.891 C 152.667 108.750,152.805 108.436,152.974 108.192 C 153.143 107.949,153.526 107.188,153.824 106.500 C 154.123 105.813,154.442 105.108,154.533 104.934 C 154.625 104.760,154.833 104.235,154.997 103.767 C 155.160 103.300,155.407 102.617,155.546 102.250 C 157.069 98.229,157.566 92.542,156.701 89.032 C 156.166 86.860,155.703 85.816,154.235 83.469 C 153.689 82.597,150.492 79.406,150.011 79.253 C 149.822 79.193,149.667 79.086,149.667 79.015 C 149.667 78.944,149.310 78.684,148.875 78.436 C 148.440 78.188,147.783 77.800,147.417 77.573 C 147.050 77.346,146.637 77.112,146.500 77.055 C 146.362 76.997,145.557 76.624,144.709 76.225 C 143.861 75.826,143.085 75.500,142.984 75.500 C 142.883 75.500,142.527 75.376,142.192 75.225 C 141.857 75.074,141.096 74.732,140.500 74.466 C 139.904 74.201,139.304 73.923,139.167 73.850 C 136.310 72.331,134.695 71.316,133.333 70.183 C 132.367 69.380,130.000 67.049,130.000 66.901 C 130.000 66.853,129.783 66.537,129.518 66.199 C 125.817 61.472,125.766 53.826,129.391 46.923 C 129.726 46.285,130.000 45.676,130.000 45.569 C 130.000 45.462,130.106 45.286,130.236 45.179 C 130.365 45.071,130.628 44.668,130.820 44.283 C 131.217 43.487,131.426 43.138,131.958 42.386 C 132.164 42.094,132.333 41.782,132.333 41.692 C 132.333 41.602,132.393 41.503,132.465 41.472 C 132.538 41.442,132.932 40.929,133.340 40.333 C 133.749 39.737,134.128 39.212,134.183 39.167 C 134.238 39.121,134.499 38.746,134.763 38.333 C 135.300 37.495,135.319 37.465,136.250 36.006 C 136.617 35.431,136.994 34.876,137.090 34.772 C 137.185 34.668,137.443 34.283,137.664 33.917 C 137.885 33.550,138.115 33.212,138.175 33.167 C 138.234 33.121,138.313 33.008,138.350 32.917 C 138.418 32.747,139.280 31.290,139.962 30.193 C 140.170 29.858,140.431 29.396,140.542 29.167 C 140.653 28.938,140.787 28.712,140.840 28.667 C 141.147 28.402,143.232 24.322,143.907 22.667 C 145.619 18.465,146.561 14.016,145.026 17.375 M136.267 185.708 C 136.155 186.128,135.357 189.798,135.009 191.500 C 134.812 192.463,134.471 194.075,134.252 195.083 C 134.032 196.092,133.704 197.629,133.522 198.500 C 133.340 199.371,132.991 201.021,132.746 202.167 C 132.500 203.313,132.165 204.887,132.000 205.667 C 131.357 208.706,130.798 211.311,130.498 212.667 C 130.325 213.446,130.142 214.402,130.090 214.792 L 129.996 215.500 133.225 215.500 L 136.454 215.500 136.648 214.458 C 136.754 213.885,137.021 212.592,137.241 211.583 C 137.460 210.575,137.803 208.963,138.002 208.000 C 138.201 207.037,138.544 205.484,138.765 204.547 C 138.986 203.610,139.167 202.691,139.167 202.505 C 139.167 202.176,139.261 202.167,142.583 202.167 C 145.195 202.167,146.000 202.215,146.000 202.374 C 146.000 202.488,145.813 203.369,145.585 204.332 C 145.357 205.295,145.022 206.796,144.841 207.667 C 144.228 210.624,143.661 213.247,143.413 214.277 C 143.278 214.842,143.167 215.349,143.167 215.402 C 143.167 215.456,144.612 215.500,146.379 215.500 L 149.590 215.500 150.040 213.625 C 150.287 212.594,150.645 211.000,150.835 210.083 C 151.025 209.167,151.358 207.592,151.575 206.583 C 151.792 205.575,152.132 203.963,152.330 203.000 C 152.528 202.037,152.878 200.387,153.107 199.333 C 153.693 196.643,154.258 194.019,154.651 192.167 C 154.836 191.296,155.175 189.721,155.405 188.667 C 155.635 187.612,155.844 186.487,155.870 186.167 L 155.917 185.583 152.750 185.583 L 149.583 185.583 149.292 186.833 C 149.132 187.521,148.848 188.833,148.661 189.750 C 148.473 190.667,148.135 192.204,147.910 193.167 C 147.684 194.129,147.500 195.062,147.500 195.239 C 147.500 195.416,147.378 195.998,147.228 196.531 L 146.956 197.500 143.645 197.500 C 141.823 197.500,140.335 197.444,140.337 197.375 C 140.343 197.125,140.792 194.722,141.045 193.583 C 141.187 192.942,141.505 191.479,141.751 190.333 C 141.998 189.188,142.304 187.785,142.433 187.216 C 142.857 185.340,143.132 185.500,139.495 185.500 C 137.098 185.500,136.309 185.551,136.267 185.708 M167.047 185.705 C 166.892 185.904,165.554 188.608,161.380 197.167 C 158.930 202.189,156.484 207.196,156.312 207.542 C 156.232 207.702,156.102 207.965,156.024 208.125 C 155.945 208.285,155.744 208.679,155.578 209.000 C 155.411 209.321,155.217 209.696,155.146 209.833 C 155.076 209.971,154.520 211.133,153.912 212.417 C 153.304 213.700,152.737 214.880,152.653 215.039 C 152.569 215.199,152.500 215.369,152.500 215.418 C 152.500 215.467,153.933 215.487,155.684 215.462 L 158.868 215.417 159.175 214.833 C 159.344 214.512,159.792 213.575,160.170 212.750 C 160.549 211.925,161.078 210.818,161.346 210.289 C 161.614 209.761,161.833 209.217,161.833 209.081 C 161.833 208.869,162.426 208.833,166.000 208.833 L 170.167 208.833 170.167 210.042 C 170.168 210.706,170.217 212.206,170.276 213.375 L 170.385 215.500 173.774 215.500 L 177.164 215.500 177.078 213.458 C 177.030 212.335,176.804 208.342,176.575 204.583 C 176.346 200.825,176.007 195.237,175.821 192.167 C 175.634 189.096,175.467 186.358,175.449 186.083 L 175.417 185.583 171.314 185.539 C 168.158 185.505,167.174 185.543,167.047 185.705 M186.084 185.958 C 186.036 186.210,185.851 187.092,185.673 187.917 C 185.345 189.444,184.707 192.446,184.167 195.000 C 184.002 195.779,183.666 197.354,183.421 198.500 C 183.176 199.646,182.826 201.296,182.645 202.167 C 182.463 203.037,182.134 204.575,181.915 205.583 C 181.696 206.592,181.356 208.204,181.160 209.167 C 180.964 210.129,180.623 211.683,180.402 212.620 C 180.181 213.557,180.000 214.588,180.000 214.912 L 180.000 215.500 183.000 215.500 L 186.000 215.500 186.000 215.081 C 186.000 214.850,186.181 213.894,186.402 212.956 C 186.623 212.018,186.955 210.537,187.139 209.667 C 187.324 208.796,187.676 207.146,187.921 206.000 C 188.589 202.877,188.925 201.301,189.409 199.000 C 190.389 194.341,190.617 193.735,190.655 195.690 C 190.661 196.024,190.817 197.026,191.000 197.917 C 191.183 198.808,191.333 199.768,191.333 200.050 C 191.333 200.333,191.519 201.581,191.747 202.824 C 191.974 204.067,192.313 206.096,192.500 207.333 C 192.687 208.571,193.026 210.600,193.253 211.843 C 193.481 213.086,193.667 214.418,193.667 214.804 L 193.667 215.506 197.955 215.461 L 202.243 215.417 202.462 214.333 C 202.782 212.740,203.290 210.331,203.744 208.250 C 203.963 207.242,204.306 205.629,204.505 204.667 C 204.847 203.015,205.128 201.702,206.109 197.167 C 206.338 196.112,206.663 194.575,206.833 193.750 C 207.003 192.925,207.330 191.387,207.559 190.333 C 208.286 186.991,208.504 185.922,208.502 185.708 C 208.501 185.550,207.792 185.500,205.522 185.500 L 202.544 185.500 202.272 186.469 C 202.122 187.002,202.000 187.610,202.000 187.819 C 202.000 188.028,201.815 188.961,201.589 189.891 C 201.363 190.822,201.019 192.371,200.824 193.333 C 200.628 194.296,200.296 195.871,200.084 196.833 C 199.873 197.796,199.499 199.521,199.254 200.667 C 199.008 201.813,198.677 203.337,198.517 204.053 L 198.227 205.357 197.793 203.053 C 197.554 201.787,197.197 199.775,196.999 198.583 C 196.529 195.747,195.888 192.019,195.493 189.833 C 195.320 188.871,195.128 187.671,195.068 187.167 C 195.008 186.662,194.895 186.081,194.817 185.875 L 194.675 185.500 190.424 185.500 L 186.173 185.500 186.084 185.958 M213.496 185.928 C 213.406 186.163,213.335 186.481,213.336 186.636 C 213.338 186.790,213.144 187.779,212.906 188.833 C 212.668 189.887,212.324 191.463,212.143 192.333 C 211.962 193.204,211.634 194.742,211.415 195.750 C 211.196 196.758,210.855 198.371,210.658 199.333 C 210.323 200.970,210.027 202.344,209.081 206.667 C 208.870 207.629,208.538 209.204,208.342 210.167 C 208.008 211.812,207.400 214.544,207.218 215.221 C 207.103 215.647,219.107 215.552,220.744 215.113 C 223.315 214.424,225.198 213.184,226.735 211.167 C 227.365 210.340,227.776 209.630,228.664 207.833 C 229.133 206.884,230.178 203.200,230.532 201.250 C 230.615 200.792,230.827 199.667,231.003 198.750 C 232.459 191.165,231.425 187.248,227.667 186.107 C 225.955 185.588,224.757 185.502,219.204 185.501 L 213.658 185.500 213.496 185.928 M238.512 185.884 C 238.426 186.112,238.308 186.587,238.250 186.941 C 238.143 187.597,237.796 189.263,237.058 192.667 C 236.829 193.721,236.502 195.258,236.331 196.083 C 236.160 196.908,235.834 198.446,235.607 199.500 C 235.380 200.554,235.030 202.204,234.831 203.167 C 234.632 204.129,234.295 205.704,234.083 206.667 C 233.871 207.629,233.538 209.204,233.342 210.167 C 233.045 211.630,232.509 214.002,232.202 215.208 C 232.095 215.629,243.724 215.650,246.179 215.234 C 249.492 214.672,252.769 212.378,253.418 210.167 C 253.486 209.938,253.600 209.675,253.672 209.583 C 253.744 209.492,253.965 208.742,254.164 207.917 C 255.277 203.302,254.400 200.982,251.167 199.990 C 250.775 199.870,250.772 199.861,251.120 199.848 C 254.837 199.704,258.420 192.443,256.645 188.651 C 255.398 185.985,254.116 185.631,245.376 185.541 L 238.669 185.471 238.512 185.884 M267.498 189.625 C 266.389 191.894,264.817 195.100,264.005 196.750 C 263.193 198.400,261.649 201.550,260.575 203.750 C 259.500 205.950,257.956 209.085,257.144 210.717 C 256.331 212.349,255.667 213.757,255.667 213.846 C 255.667 213.934,255.479 214.304,255.250 214.667 C 255.021 215.030,254.833 215.366,254.833 215.413 C 254.833 215.461,256.298 215.500,258.089 215.500 L 261.345 215.500 261.684 214.708 C 261.870 214.273,262.273 213.392,262.580 212.750 C 262.887 212.108,263.423 210.965,263.771 210.208 L 264.403 208.833 268.448 208.833 L 272.494 208.833 272.573 209.208 C 272.616 209.415,272.700 210.915,272.760 212.542 L 272.869 215.500 276.291 215.500 L 279.713 215.500 279.613 214.458 C 279.502 213.293,279.175 208.009,278.668 199.167 C 278.004 187.601,277.890 185.894,277.769 185.698 C 277.680 185.554,276.541 185.500,273.581 185.500 L 269.515 185.500 267.498 189.625 M288.614 185.621 C 288.572 185.692,288.448 186.200,288.337 186.750 C 288.227 187.300,287.950 188.612,287.721 189.667 C 287.493 190.721,287.166 192.258,286.996 193.083 C 286.825 193.908,286.500 195.446,286.273 196.500 C 286.046 197.554,285.697 199.204,285.498 200.167 C 285.298 201.129,284.962 202.704,284.750 203.667 C 284.538 204.629,284.202 206.204,284.004 207.167 C 283.656 208.856,283.069 211.583,282.571 213.833 C 282.439 214.429,282.331 215.048,282.332 215.208 C 282.333 215.482,282.817 215.500,290.143 215.500 L 297.952 215.500 298.315 213.875 C 298.514 212.981,298.750 211.930,298.839 211.539 C 299.136 210.230,299.514 210.333,294.417 210.333 C 291.896 210.333,289.833 210.289,289.833 210.236 C 289.833 210.182,289.942 209.676,290.074 209.111 C 290.292 208.180,290.628 206.623,291.500 202.500 C 291.665 201.721,292.000 200.146,292.246 199.000 C 292.491 197.854,292.840 196.204,293.022 195.333 C 293.204 194.463,293.532 192.925,293.750 191.917 C 294.692 187.570,294.828 186.882,294.871 186.250 L 294.917 185.583 291.804 185.538 C 290.092 185.513,288.656 185.551,288.614 185.621 M306.661 186.188 C 306.559 186.567,306.412 187.261,306.335 187.730 C 306.258 188.199,306.039 189.179,305.848 189.906 C 305.656 190.634,305.500 191.384,305.501 191.573 C 305.501 191.762,305.355 192.554,305.177 193.333 C 304.598 195.867,304.011 198.548,303.661 200.250 C 303.301 202.002,302.810 204.302,302.114 207.500 C 301.885 208.554,301.537 210.204,301.341 211.167 C 301.146 212.129,300.876 213.404,300.742 214.000 C 300.607 214.596,300.498 215.177,300.499 215.292 C 300.500 215.455,302.175 215.500,308.315 215.500 L 316.129 215.500 316.466 214.042 C 316.921 212.073,317.167 210.856,317.167 210.571 C 317.167 210.371,316.435 210.333,312.566 210.333 C 308.953 210.333,307.982 210.289,308.044 210.125 C 308.088 210.010,308.212 209.467,308.318 208.917 C 308.425 208.367,308.696 207.092,308.920 206.083 C 309.145 205.075,309.476 203.537,309.658 202.667 C 309.839 201.796,310.181 200.183,310.418 199.083 C 310.655 197.983,310.998 196.371,311.179 195.500 C 311.360 194.629,311.694 193.122,311.921 192.151 C 312.148 191.179,312.333 190.224,312.333 190.027 C 312.333 189.831,312.477 189.126,312.652 188.460 C 312.828 187.795,313.018 186.856,313.075 186.375 L 313.178 185.500 310.012 185.500 L 306.846 185.500 306.661 186.188 M223.643 190.821 C 224.467 191.242,224.582 191.399,224.922 192.572 C 225.374 194.134,224.883 197.685,223.486 202.955 C 223.310 203.617,223.167 204.253,223.167 204.367 C 223.167 205.070,221.743 208.220,221.035 209.083 C 220.088 210.239,219.366 210.506,216.876 210.618 C 214.966 210.705,214.624 210.684,214.695 210.485 C 214.872 209.989,215.810 205.785,216.661 201.667 C 216.860 200.704,217.203 199.092,217.423 198.083 C 217.643 197.075,217.972 195.537,218.154 194.667 C 218.336 193.796,218.608 192.502,218.757 191.792 L 219.028 190.500 221.021 190.500 C 222.659 190.500,223.125 190.557,223.643 190.821 M248.814 190.683 C 250.707 191.258,250.918 194.492,249.183 196.354 C 248.162 197.450,247.745 197.580,245.070 197.636 L 242.557 197.689 242.666 196.886 C 242.726 196.445,242.936 195.408,243.132 194.583 C 243.328 193.758,243.609 192.502,243.758 191.792 L 244.028 190.500 246.120 190.500 C 247.270 190.500,248.483 190.582,248.814 190.683 M169.729 200.208 L 169.827 204.167 167.080 204.167 C 165.522 204.167,164.333 204.100,164.333 204.014 C 164.333 203.929,164.439 203.648,164.567 203.389 C 164.847 202.826,165.275 201.863,166.001 200.167 C 166.296 199.479,166.635 198.692,166.755 198.417 C 166.875 198.142,167.361 197.017,167.836 195.917 C 168.310 194.817,168.841 193.612,169.016 193.239 C 169.190 192.866,169.344 192.454,169.358 192.322 C 169.413 191.774,169.637 196.533,169.729 200.208 M272.229 200.292 L 272.329 204.167 269.581 204.167 C 267.657 204.167,266.833 204.110,266.833 203.979 C 266.833 203.804,267.311 202.629,268.010 201.083 C 268.299 200.444,268.544 199.884,269.577 197.500 C 269.835 196.904,270.177 196.117,270.337 195.750 C 270.802 194.679,271.614 192.778,271.761 192.417 C 271.922 192.018,272.085 194.760,272.229 200.292 M246.301 202.696 C 249.072 203.390,248.617 208.314,245.619 210.071 C 244.561 210.691,239.551 210.972,239.724 210.401 C 239.953 209.639,241.069 204.548,241.255 203.418 C 241.315 203.052,241.399 202.696,241.442 202.626 C 241.566 202.425,245.441 202.480,246.301 202.696 " stroke="none" fill="#e43434" fill-rule="evenodd"></path><path id="path2" d="M362.375 165.958 C 363.635 165.986,365.698 165.986,366.958 165.958 C 368.219 165.930,367.188 165.906,364.667 165.906 C 362.146 165.906,361.115 165.930,362.375 165.958 " stroke="none" fill="#908058" fill-rule="evenodd"></path><path id="path3" d="" stroke="none" fill="#c85c58" fill-rule="evenodd"></path><path id="path4" d="" stroke="none" fill="#c8345c" fill-rule="evenodd"></path></g></svg>